<?xml version="1.0" encoding="utf-8"?>
<!-- Generator: Adobe Illustrator 13.0.2, SVG Export Plug-In . SVG Version: 6.00 Build 14948)  -->
<!DOCTYPE svg PUBLIC "-//W3C//DTD SVG 1.0//EN" "http://www.w3.org/TR/2001/REC-SVG-20010904/DTD/svg10.dtd">
<svg version="1.0"
	 id="svg3976" xmlns:svg="http://www.w3.org/2000/svg"
	 xmlns="http://www.w3.org/2000/svg" xmlns:xlink="http://www.w3.org/1999/xlink" x="0px" y="0px" width="708.662px"
	 height="487.148px" viewBox="0 0 708.662 487.148" enable-background="new 0 0 708.662 487.148" xml:space="preserve">
<defs>
</defs>
<g id="layer1" transform="translate(-723.9373,392.31465)">
	<g id="g3972" transform="matrix(18.382916,0,0,18.382916,-11016.312,-1350.3587)">
		<path id="path3314" fill="#004994" d="M657.92,68.976c-5.31,0-9.64-4.32-9.64-9.63h-9.63c0,10.63,8.64,19.27,19.27,19.27
			c10.63,0,19.28-8.64,19.28-19.27h-9.64C667.56,64.656,663.24,68.976,657.92,68.976"/>
		<path id="path3316" fill="#004994" d="M665.15,59.336c0,4-3.24,7.23-7.23,7.23s-7.23-3.23-7.23-7.23c0-3.99,3.24-7.22,7.23-7.22
			S665.15,55.346,665.15,59.336"/>
	</g>
</g>
</svg>
