<?xml version="1.0" encoding="UTF-8" standalone="no"?><!DOCTYPE svg PUBLIC "-//W3C//DTD SVG 1.1//EN"
        "http://www.w3.org/Graphics/SVG/1.1/DTD/svg11.dtd">
<svg width="100%" height="100%" viewBox="0 0 500 500" version="1.1" xmlns="http://www.w3.org/2000/svg"
     xml:space="preserve"
     style="fill-rule:evenodd;clip-rule:evenodd;stroke-linejoin:round;stroke-miterlimit:2;"><rect id="Logo-Square" x="0" y="0" width="500" height="500" style="fill:none;"/>
    <g><path d="M185.418,170.569c0.645,-18.382 6.014,-25.698 16.419,-33.805c11.268,-8.779 20.746,-15.511 23.23,-7.752c2.484,7.76 5.085,34.48 -10.449,54.535c-8.717,11.253 -15.747,14.884 -20.789,13.967c-4.527,-0.823 -9.369,0.38 -8.411,-26.945Z"/>
        <path d="M239.03,148.864c8.487,5.483 11.628,17.112 15.031,26.734c4.514,12.764 7.19,23.704 29.814,40.644c56.097,23.1 104.295,23.746 134.258,31.097c22.34,5.482 69.342,3.437 69.842,126.09c0.158,38.785 -14.437,53.414 -40.258,53.822c-91.222,1.443 -222.41,0.991 -261.699,0.611c-96.673,-0.934 -71.396,-107.391 -84.874,-107.391c-9.329,0 -55.975,-5.608 -61.018,-12.848c-3.251,-4.666 -8.62,-52.842 -8.62,-59.008l3.315,-57.124c1.65,-8.124 41.049,-35.626 64.883,-46.402c15.666,-7.084 45.306,-14.538 49.026,-16.658l33.784,0.945c15.342,0 44.592,11.784 56.516,19.488Z"
              style="fill:#bb6836;"/>
        <path d="M186.326,128.713c11.178,-22.649 -10.252,-57.228 -31.951,-56.953c-19.501,0.248 -37.644,10.555 -36.247,38.585c1.778,35.664 58.978,37.052 68.198,18.368Z"
              style="fill:#d87d03;"/>
        <path d="M37.494,187.143c13.334,0 17.013,41.806 19.644,61.451c2.631,19.644 6.841,66.722 -4.87,64.683c0,-0 -34.031,-6.965 -39.218,-44.456c-7.041,-50.892 24.444,-81.678 24.444,-81.678Z"
              style="fill:#6e3d20;"/>
        <path d="M132.526,181.337c12.688,-0.138 23.814,-11.505 23.88,-5.098c0.036,3.526 -3.237,8.999 -8.303,13.232c-4.139,3.458 -9.475,6.088 -15.181,6.15c-12.688,0.138 -28.136,-6.267 -28.202,-12.674c-0.066,-6.408 15.117,-1.473 27.806,-1.61Z"/>
        <path d="M217.822,165.492c0.5,-11.455 4.656,-16.014 12.711,-21.066c8.722,-5.471 16.06,-9.667 17.983,-4.831c1.923,4.835 3.937,21.487 -8.089,33.984c-6.748,7.013 -12.19,9.276 -16.094,8.704c-3.504,-0.513 -7.253,0.237 -6.511,-16.791Z"/></g></svg>